#!OML:ASF E:\acrobat2\Project_11_07_03\Capture day 1\Session 1\Acrobat.ASF
:FULLY-SPECIFIED
:DEGREES
196
root 7.13943 18.1492 -19.2682 3.11013 -0.607306 0.443541
lowerback -5.46169 -0.137268 -0.0174093
upperback -0.608031 -0.174293 -0.291355
thorax 2.43514 -0.0858483 -0.302746
lowerneck 4.79012 -11.8429 -8.92863
upperneck 2.15074 -16.3397 7.79251
head 1.37524 -8.27185 3.9331
rclavicle 5.62188e-016 7.72775e-015
rhumerus -43.5289 -0.204654 -78.1525
rradius 28.2882
rwrist 0.0051239
rhand 0.327717 -44.6402
rfingers 7.12502
rthumb 25.9042 -72.8955
lclavicle 5.62188e-016 7.72775e-015
lhumerus -33.3163 -2.04714 83.1138
lradius 26.4079
lwrist 11.3915
lhand -6.20534 -15.7102
lfingers 7.12502
lthumb 19.635 13.3182
rfemur 5.832 5.74393 18.9144
rtibia 0.330269
rfoot -25.2311 -29.821
rtoes 10.0149
lfemur 1.26358 -3.03646 -11.6822
ltibia 4.32325
lfoot -11.4915 2.25018
ltoes 21.891
197
root 7.14475 18.1498 -19.2717 3.03991 -0.714978 0.421529
lowerback -5.528 -0.111038 -0.0660397
upperback -0.587576 -0.135136 -0.332078
thorax 2.49351 -0.0665905 -0.314611
lowerneck 4.71466 -11.7974 -8.79472
upperneck 2.36817 -16.2697 7.54863
head 1.41686 -8.23422 3.81916
rclavicle 1.66987e-015 1.35671e-014
rhumerus -43.5109 -0.00102929 -78.4203
rradius 28.1815
rwrist 0.595528
rhand 0.548618 -44.4755
rfingers 7.12502
rthumb 26.1157 -72.6997
lclavicle 1.66987e-015 1.35671e-014
lhumerus -33.3155 -2.05731 83.2482
lradius 26.7979
lwrist 11.7046
lhand -6.13402 -15.9209
lfingers 7.12502
lthumb 19.7035 13.1005
rfemur 5.86855 5.68157 18.8956
rtibia 0.3508
rfoot -25.094 -29.7193
rtoes 9.82394
lfemur 1.36491 -2.95771 -11.6646
ltibia 4.28937
lfoot -11.4781 2.26682
ltoes 21.9375
198
root 7.15004 18.1504 -19.2753 2.97512 -0.822786 0.372865
lowerback -5.59138 -0.0768274 -0.0737211
upperback -0.561366 -0.0876381 -0.376457
thorax 2.55615 -0.0427537 -0.352505
lowerneck 4.63436 -11.7539 -8.65346
upperneck 2.55873 -16.2018 7.35214
head 1.45493 -8.19766 3.72067
rclavicle -2.56479e-015 -5.96354e-016
rhumerus -43.489 0.123385 -78.66
rradius 28.1338
rwrist 1.11667
rhand 0.81353 -44.3753
rfingers 7.12502
rthumb 26.3694 -72.5618
lclavicle -2.56479e-015 -5.96354e-016
lhumerus -33.3171 -2.11591 83.3834
lradius 27.195
lwrist 12.0531
lhand -6.07098 -16.1381
lfingers 7.12502
lthumb 19.7641 12.8771
rfemur 5.88831 5.62856 18.9091
rtibia 0.389439
rfoot -24.9844 -29.6085
rtoes 9.68813
lfemur 1.46958 -2.85771 -11.6062
ltibia 4.2373
lfoot -11.4461 2.27775
ltoes 21.9042
199
root 7.15517 18.1507 -19.279 2.91977 -0.939157 0.30058
lowerback -5.64795 -0.0362738 -0.0452393
upperback -0.53577 -0.0338255 -0.424073
thorax 2.61443 -0.0153627 -0.413435
lowerneck 4.54785 -11.7092 -8.50562
upperneck 2.72996 -16.1324 7.20112
head 1.49169 -8.16032 3.63675
rclavicle -1.77198e-015 1.61016e-014
rhumerus -43.4769 0.186646 -78.8796
rradius 28.1489
rwrist 1.53737
rhand 1.12186 -44.3646
rfingers 7.12502
rthumb 26.6645 -72.5065
lclavicle -1.77198e-015 1.61016e-014
lhumerus -33.3369 -2.20785 83.5102
lradius 27.6011
lwrist 12.4009
lhand -6.04436 -16.226
lfingers 7.12502
lthumb 19.7897 12.7865
rfemur 5.8864 5.59558 18.9521
rtibia 0.444496
rfoot -24.885 -29.4976
rtoes 9.55637
lfemur 1.5771 -2.75547 -11.514
ltibia 4.16181
lfoot -11.4143 2.29338
ltoes 21.8774
200
root 7.15986 18.1509 -19.283 2.8802 -1.06697 0.20367
lowerback -5.69588 0.00558239 0.0083418
upperback -0.523834 0.0199004 -0.46617
thorax 2.65396 0.012234 -0.482674
lowerneck 4.47372 -11.6615 -8.35886
upperneck 2.8834 -16.0601 7.07831
head 1.52326 -8.12175 3.56424
rclavicle 2.0391e-015 6.75868e-015
rhumerus -43.4868 0.217292 -79.0812
rradius 28.2062
rwrist 1.84997
rhand 1.41413 -44.3858
rfingers 7.12502
rthumb 26.9442 -72.4848
lclavicle 2.0391e-015 6.75868e-015
lhumerus -33.391 -2.28365 83.6182
lradius 27.9943
lwrist 12.6839
lhand -6.05267 -16.1599
lfingers 7.12502
lthumb 19.7817 12.8535
rfemur 5.86117 5.60842 19.0327
rtibia 0.506371
rfoot -24.7954 -29.4125
rtoes 9.426
lfemur 1.68192 -2.66453 -11.3873
ltibia 4.06033
lfoot -11.3937 2.32578
ltoes 21.8862
201
root 7.16423 18.1513 -19.287 2.85748 -1.1965 0.101331
lowerback -5.74248 0.0372778 0.0555732
upperback -0.534462 0.0600156 -0.496065
thorax 2.66953 0.0328826 -0.536793
lowerneck 4.42622 -11.6058 -8.22261
upperneck 3.02758 -15.9792 6.9631
head 1.54833 -8.07954 3.49876
rclavicle 1.7052e-015 -1.28216e-014
rhumerus -43.5283 0.270735 -79.2698
rradius 28.2915
rwrist 2.03336
rhand 1.65631 -44.4192
rfingers 7.12502
rthumb 27.1758 -72.4822
lclavicle 1.7052e-015 -1.28216e-014
lhumerus -33.4911 -2.29297 83.7017
lradius 28.357
lwrist 12.8673
lhand -6.05603 -15.9121
lfingers 7.12502
lthumb 19.7785 13.1016
rfemur 5.82537 5.66604 19.1295
rtibia 0.555979
rfoot -24.7134 -29.3592
rtoes 9.30511
lfemur 1.78209 -2.59532 -11.2537
ltibia 3.93352
lfoot -11.386 2.38355
ltoes 21.8517
202
root 7.16849 18.1519 -19.2905 2.84942 -1.30784 0.0203551
lowerback -5.79646 0.0478249 0.0596449
upperback -0.56919 0.0741861 -0.511157
thorax 2.66414 0.0399911 -0.553472
lowerneck 4.42174 -11.5389 -8.10877
upperneck 3.15275 -15.8867 6.85285
head 1.56141 -8.03251 3.44296
rclavicle -3.62471e-015 1.17283e-014
rhumerus -43.6027 0.370393 -79.436
rradius 28.3948
rwrist 2.08963
rhand 1.86173 -44.4557
rfingers 7.12502
rthumb 27.3723 -72.4878
lclavicle -3.62471e-015 1.17283e-014
lhumerus -33.6333 -2.21089 83.764
lradius 28.6773
lwrist 12.9511
lhand -5.99487 -15.7509
lfingers 7.12502
lthumb 19.8373 13.2567
rfemur 5.80015 5.75081 19.2097
rtibia 0.568136
rfoot -24.6397 -29.3415
rtoes 9.19021
lfemur 1.87951 -2.55856 -11.1513
ltibia 3.77774
lfoot -11.3832 2.46053
ltoes 21.75
203
root 7.17254 18.153 -19.2934 2.85442 -1.38605 -0.0200711
lowerback -5.86251 0.0341061 -0.00663354
upperback -0.624806 0.0601584 -0.513723
thorax 2.64361 0.0321891 -0.520007
lowerneck 4.45176 -11.4656 -8.01837
upperneck 3.2678 -15.7883 6.7454
head 1.56729 -7.9834 3.39501
rclavicle -2.23633e-015 -2.78299e-015
rhumerus -43.7001 0.489699 -79.5633
rradius 28.5025
rwrist 2.03708
rhand 2.04501 -44.5112
rfingers 7.12502
rthumb 27.5476 -72.5155
lclavicle -2.23633e-015 -2.78299e-015
lhumerus -33.8025 -2.03859 83.8099
lradius 28.9459
lwrist 12.9555
lhand -5.84844 -15.7406
lfingers 7.12502
lthumb 19.978 13.2524
rfemur 5.80231 5.86562 19.2534
rtibia 0.521331
rfoot -24.6011 -29.3782
rtoes 9.12353
lfemur 1.97214 -2.55913 -11.1041
ltibia 3.59622
lfoot -11.3799 2.54347
ltoes 21.6248
204
root 7.1764 18.1544 -19.2953 2.86761 -1.42495 -0.0110873
lowerback -5.94359 0.00155286 -0.144009
upperback -0.689559 0.0257154 -0.514944
thorax 2.6219 0.0135114 -0.446908
lowerneck 4.48925 -11.3972 -7.94048
upperneck 3.38679 -15.6976 6.64123
head 1.57548 -7.93845 3.35026
rclavicle 5.03795e-015 -7.35503e-015
rhumerus -43.8018 0.583489 -79.6488
rradius 28.6087
rwrist 1.88727
rhand 2.18694 -44.6164
rfingers 7.12502
rthumb 27.6834 -72.599
lclavicle 5.03795e-015 -7.35503e-015
lhumerus -33.9748 -1.80782 83.8416
lradius 29.1694
lwrist 12.923
lhand -5.61835 -15.812
lfingers 7.12502
lthumb 20.1992 13.1578
rfemur 5.84142 6.00118 19.2489
rtibia 0.409182
rfoot -24.6023 -29.4701
rtoes 9.11516
lfemur 2.06328 -2.59774 -11.1246
ltibia 3.39279
lfoot -11.379 2.62512
ltoes 21.5224
205
root 7.18027 18.1559 -19.2968 2.88877 -1.433 0.0411325
lowerback -6.03965 -0.0376129 -0.326836
upperback -0.750808 -0.0139141 -0.528352
thorax 2.61232 -0.00805704 -0.361324
lowerneck 4.51231 -11.3387 -7.86302
upperneck 3.50301 -15.6199 6.55661
head 1.58839 -7.89966 3.31052
rclavicle -9.00743e-016 2.5842e-015
rhumerus -43.8843 0.600951 -79.6928
rradius 28.7035
rwrist 1.67493
rhand 2.26634 -44.73
rfingers 7.12502
rthumb 27.7593 -72.7004
lclavicle -9.00743e-016 2.5842e-015
lhumerus -34.1219 -1.56654 83.8594
lradius 29.3598
lwrist 12.8911
lhand -5.38202 -15.7662
lfingers 7.12502
lthumb 20.4263 13.1794
rfemur 5.90105 6.12856 19.1946
rtibia 0.25425
rfoot -24.62 -29.5884
rtoes 9.12482
lfemur 2.1513 -2.66804 -11.207
ltibia 3.17408
lfoot -11.3875 2.70324
ltoes 21.5041
206
root 7.18411 18.1573 -19.2982 2.91937 -1.42218 0.117114
lowerback -6.15157 -0.0758688 -0.522726
upperback -0.798834 -0.0504547 -0.558221
thorax 2.62543 -0.0280824 -0.285212
lowerneck 4.50184 -11.2986 -7.7817
upperneck 3.60906 -15.5652 6.50277
head 1.60835 -7.87167 3.27733
rclavicle -1.06847e-015 9.54166e-015
rhumerus -43.9328 0.525821 -79.7033
rradius 28.7886
rwrist 1.43043
rhand 2.29143 -44.8198
rfingers 7.12502
rthumb 27.7833 -72.7863
lclavicle -1.06847e-015 9.54166e-015
lhumerus -34.2267 -1.34418 83.8605
lradius 29.5205
lwrist 12.8706
lhand -5.18076 -15.6131
lfingers 7.12502
lthumb 20.6197 13.3116
rfemur 5.96218 6.2363 19.11
rtibia 0.0833274
rfoot -24.6431 -29.7092
rtoes 9.11493
lfemur 2.22954 -2.75697 -11.3253
ltibia 2.95612
lfoot -11.4052 2.7791
ltoes 21.549
207
root 7.18781 18.1585 -19.2999 2.95486 -1.39954 0.189507
lowerback -6.2743 -0.112681 -0.700462
upperback -0.829819 -0.0853264 -0.597585
thorax 2.66228 -0.0470803 -0.229081
lowerneck 4.45253 -11.2714 -7.70976
upperneck 3.71109 -15.5273 6.49397
head 1.64029 -7.85143 3.25725
rclavicle -1.57785e-015 -6.75868e-015
rhumerus -43.9498 0.373622 -79.6906
rradius 28.8839
rwrist 1.16452
rhand 2.27575 -44.8999
rfingers 7.12502
rthumb 27.7683 -72.8688
lclavicle -1.57785e-015 -6.75868e-015
lhumerus -34.2802 -1.13882 83.8414
lradius 29.6297
lwrist 12.854
lhand -5.04836 -15.4115
lfingers 7.12502
lthumb 20.747 13.4994
rfemur 6.02347 6.32915 19.0311
rtibia -0.0909696
rfoot -24.6592 -29.8274
rtoes 9.04437
lfemur 2.29961 -2.85451 -11.4421
ltibia 2.74731
lfoot -11.426 2.85434
ltoes 21.6359
208
root 7.19124 18.1595 -19.3021 2.99376 -1.37417 0.237469
lowerback -6.39676 -0.146345 -0.839927
upperback -0.850617 -0.118017 -0.638946
thorax 2.70953 -0.0646576 -0.196449
lowerneck 4.38989 -11.2569 -7.66574
upperneck 3.79102 -15.5084 6.54589
head 1.67714 -7.84054 3.2608
rclavicle 4.34841e-017 2.18663e-015
rhumerus -43.9475 0.160212 -79.6616
rradius 29.0019
rwrist 0.885375
rhand 2.2109 -44.9731
rfingers 7.12502
rthumb 27.7063 -72.952
lclavicle 4.34841e-017 2.18663e-015
lhumerus -34.2833 -0.944325 83.8013
lradius 29.656
lwrist 12.8375
lhand -4.97722 -15.2517
lfingers 7.12502
lthumb 20.8153 13.6517
rfemur 6.08 6.43103 18.9883
rtibia -0.259879
rfoot -24.6734 -29.9542
rtoes 8.92498
lfemur 2.35758 -2.94972 -11.5257
ltibia 2.55413
lfoot -11.4396 2.93137
ltoes 21.7427
209
root 7.19444 18.1606 -19.305 3.03654 -1.35638 0.255711
lowerback -6.51183 -0.176606 -0.939112
upperback -0.871165 -0.148844 -0.676261
thorax 2.75291 -0.080934 -0.182196
lowerneck 4.33283 -11.2491 -7.66257
upperneck 3.84902 -15.5022 6.66141
head 1.71663 -7.83643 3.29263
rclavicle -2.31708e-015 -8.54774e-015
rhumerus -43.9399 -0.0766032 -79.6271
rradius 29.144
rwrist 0.595752
rhand 2.08532 -45.0298
rfingers 7.12502
rthumb 27.5862 -73.028
lclavicle -2.31708e-015 -8.54774e-015
lhumerus -34.2567 -0.760346 83.7459
lradius 29.5978
lwrist 12.8341
lhand -4.93209 -15.2152
lfingers 7.12502
lthumb 20.8587 13.6835
rfemur 6.125 6.57073 18.9916
rtibia -0.416389
rfoot -24.7107 -30.0952
rtoes 8.84284
lfemur 2.39897 -3.03173 -11.5656
ltibia 2.38182
lfoot -11.4378 3.01474
ltoes 21.7881
